<svg fill="#ffffff" height="200px" width="200px" version="1.1" id="Layer_1" xmlns="http://www.w3.org/2000/svg" xmlns:xlink="http://www.w3.org/1999/xlink" viewBox="0 0 512 512" xml:space="preserve" stroke="#ffffff"><g id="SVGRepo_bgCarrier" stroke-width="0"></g><g id="SVGRepo_tracerCarrier" stroke-linecap="round" stroke-linejoin="round"></g><g id="SVGRepo_iconCarrier"> <g> <g> <path d="M328.348,244.87H61.217c-27.619,0-50.087,22.468-50.087,50.087v166.956C11.13,489.532,33.598,512,61.217,512h267.13 c27.619,0,50.087-22.468,50.087-50.087V294.957C378.435,267.337,355.967,244.87,328.348,244.87z M211.478,373.791v54.731 c0,9.223-7.479,16.696-16.696,16.696c-9.217,0-16.696-7.473-16.696-16.696v-54.731c-9.932-5.792-16.696-16.443-16.696-28.748 c0-18.413,14.978-33.391,33.391-33.391c18.413,0,33.391,14.978,33.391,33.391C228.174,357.348,221.41,367.999,211.478,373.791z"></path> </g> </g> <g> <g> <path d="M350.609,0C267.75,0,200.348,67.408,200.348,150.261v61.217h83.478v-61.217c0-36.826,29.956-66.783,66.783-66.783 s66.783,29.956,66.783,66.783v61.217h83.478v-61.217C500.87,67.408,433.467,0,350.609,0z"></path> </g> </g> </g></svg>